<?xml version="1.0" encoding="utf-8"?>
<!-- Generator: Adobe Illustrator 16.0.0, SVG Export Plug-In . SVG Version: 6.00 Build 0)  -->
<!DOCTYPE svg PUBLIC "-//W3C//DTD SVG 1.1//EN" "http://www.w3.org/Graphics/SVG/1.1/DTD/svg11.dtd">
<svg version="1.1" id="图层_1" xmlns="http://www.w3.org/2000/svg" xmlns:xlink="http://www.w3.org/1999/xlink" x="0px" y="0px"
	 width="300px" height="75px" viewBox="0 0 300 75" enable-background="new 0 0 300 75" xml:space="preserve">
<g>
	<path fill-rule="evenodd" clip-rule="evenodd" fill="#C50109" d="M89.17,1.669c0.525,1.295,1.454,1.882,3.025,1.888
		c3.574,0.011,7.148,0.015,10.724,0.022c0.17,0,0.37-0.055,0.509,0.012c0.55,0.257,1.354,0.435,1.543,0.868
		c0.195,0.449-0.091,1.227-0.377,1.746c-2.261,4.111-5.683,7.279-8.776,10.717c-1.256,1.396-0.883,2.462,1.005,2.679
		c1.66,0.19,3.351,0.134,5.025,0.17c0.992,0.021,1.985-0.041,2.972,0.026c1.443,0.096,2.165,0.808,2.178,2.198
		c0.033,3.788,0.045,7.577,0.01,11.365c-0.014,1.605-0.618,2.202-2.22,2.206c-7.321,0.011-14.642,0.001-21.961-0.045
		c-1.816-0.012-2.329-0.605-2.368-2.468c-0.043-2.023-0.032-4.047-0.082-6.07c-0.069-2.656-1.105-3.624-3.763-3.57
		c-0.386,0.007-0.806,0.149-1.153,0.043c-0.549-0.169-1.048-0.496-1.568-0.756c0.432-0.382,0.815-0.861,1.311-1.12
		c0.48-0.249,1.082-0.252,1.623-0.393c1.947-0.505,3.933-0.905,5.833-1.559c3.714-1.28,3.577-3.1,1.57-5.692
		c-1.729-2.232-4.353-2.075-6.848-2.047c-0.426,0.004-0.88,0.209-1.275,0.12c-0.562-0.127-1.079-0.441-1.614-0.676
		c0.375-0.463,0.659-1.089,1.144-1.356c1.385-0.766,2.98-1.204,4.258-2.104c2.451-1.722,4.744-3.667,7.087-5.54
		c0.185-0.147,0.255-0.44,0.377-0.664C87.964,1.669,88.567,1.669,89.17,1.669z M94.431,33.569c1.753,0.06,4.157,0.004,6.527-0.872
		c2.029-0.748,3.375-2.046,4.055-4.004c0.527-1.513-1.22-4.547-2.959-5.285c-4.94-2.099-10.029-1.703-15.065-0.57
		c-1.253,0.282-2.466,1.377-3.382,2.386c-1.779,1.96-1.01,5.335,1.267,6.703C87.637,33.588,90.676,33.598,94.431,33.569z
		 M93.263,5.357c-3.368,0.276-6.127,0.107-8.456,1.884c-1.362,1.04-1.571,2.423-0.313,3.618c1.117,1.059,2.397,1.954,3.639,2.874
		c1.353,1.001,2.931,1.229,4.552,1.047c2.358-0.266,4.205-1.582,5.64-3.329c1.776-2.163,1.418-4.663-1.434-5.453
		C95.505,5.613,94.046,5.49,93.263,5.357z"/>
	<path fill-rule="evenodd" clip-rule="evenodd" fill="#6482A5" d="M8.535,40.694c3.099-0.017,6.199-0.048,9.298-0.048
		c16.059,0.007,32.118,0.029,48.177,0.026c15.972-0.001,31.944-0.024,47.917-0.037c0.775,0,1.565-0.065,2.316,0.077
		c0.35,0.068,0.619,0.559,0.925,0.858c-0.307,0.302-0.582,0.651-0.935,0.885c-0.183,0.123-0.503,0.041-0.761,0.041
		c-14.38,0.004-28.758,0.016-43.139,0.008c-20.881-0.008-41.762-0.033-62.643-0.049c-0.386,0-0.772,0.031-1.157,0.047
		C8.535,41.9,8.535,41.299,8.535,40.694z"/>
	<path fill-rule="evenodd" clip-rule="evenodd" fill="#6482A5" d="M94.182,52.489c0.753-0.531,1.518-1.047,2.259-1.598
		c1.405-1.052,2.782-2.146,4.2-3.183c0.854-0.622,1.833-0.895,2.758-0.22c0.943,0.69,0.902,1.681,0.547,2.694
		c-0.091,0.269-0.115,0.563-0.265,1.319c0.95-0.455,1.638-0.687,2.214-1.086c1.342-0.924,2.56-2.05,3.969-2.846
		c0.63-0.356,1.684-0.354,2.385-0.09c0.896,0.339,0.886,1.312,0.522,2.127c-0.661,1.477-1.421,2.904-2.062,4.389
		c-0.541,1.259-1.007,2.555-1.414,3.862c-0.078,0.255,0.213,0.859,0.437,0.922c0.401,0.108,0.964,0.057,1.308-0.165
		c0.919-0.59,1.76-1.308,2.63-1.978c0.095,0.074,0.187,0.148,0.281,0.223c-0.173,0.332-0.27,0.745-0.529,0.984
		c-1.898,1.743-3.801,3.482-5.766,5.149c-0.5,0.426-1.199,0.731-1.849,0.847c-2.057,0.357-3.303-0.987-2.691-2.984
		c0.476-1.545,1.209-3.01,1.84-4.506c0.252-0.596,0.587-1.158,0.791-1.763c0.108-0.323,0.021-0.712,0.021-1.074
		c-0.406,0.012-0.967-0.144-1.193,0.064c-0.971,0.893-1.881,1.859-2.742,2.857c-1.71,1.988-3.304,4.08-5.089,5.992
		c-0.664,0.71-1.671,1.229-2.618,1.506c-1.068,0.312-1.628-0.355-1.444-1.469c0.068-0.412,0.241-0.829,0.452-1.192
		c1.178-2.039,2.382-4.061,3.575-6.09c0.09-0.147,0.231-0.313,0.219-0.461c-0.041-0.467-0.143-0.926-0.221-1.391
		c-0.452,0.153-1.055,0.173-1.333,0.484c-1.483,1.657-2.883,3.391-4.322,5.091c-0.943,1.117-1.884,2.237-2.862,3.323
		c-0.371,0.41-0.817,0.767-1.271,1.086c-0.793,0.554-1.86,1.204-2.526,0.35c-0.421-0.539-0.248-1.824,0.078-2.601
		c0.644-1.537,1.609-2.937,2.379-4.425c0.274-0.526,0.37-1.146,0.611-1.93c-1.467,0.294-2.022,1.169-2.521,2.055
		c-1.05,1.857-2.521,2.928-4.727,3.09c-0.759,0.056-1.57,0.585-2.191,1.101c-1.862,1.545-3.599,3.196-6.301,3.088
		c-2.121-0.088-3.658-1.374-3.924-3.482c-0.06-0.477-0.305-0.931-0.465-1.394c-0.438,0.216-0.903,0.394-1.309,0.658
		c-1.86,1.218-3.634,2.595-5.584,3.647c-1.411,0.759-3.1,0.928-4.62,0.167c-1.788-0.895-2.442-2.54-2.603-4.463
		c-0.043-0.527-0.262-1.163-0.627-1.514c-0.581-0.558-0.616-0.996-0.096-1.523c2.554-2.608,5.051-5.273,7.698-7.781
		c1.869-1.769,4.255-1.728,6.585-1.15c1.416,0.349,2.156,1.87,1.886,3.397c-0.241,1.361-1.582,2.681-2.735,2.692
		c-1.37,0.014-1.893-0.635-1.545-1.947c0.242-0.917,1.135-0.927,1.118-1.405c-1.245-0.402-2.926,0.405-3.298,0.691
		c-2.654,2.032-3.298,4.861-3.5,7.185c-0.069,0.805,0.343,2.295,0.907,2.726c0.558,0.424,1.795,0.235,2.623-0.031
		c2.176-0.698,3.494-2.428,4.919-4.149c2.616-3.164,5.137-6.514,8.738-8.66c1.203-0.72,2.738-0.984,4.16-1.198
		c1.12-0.169,2.322,0.902,2.652,2.076c0.546,1.947,0.301,3.816-0.535,5.659c-0.326,0.72-0.558,1.553-0.551,2.331
		c0.01,0.926,0.797,1.231,1.396,0.545c1.801-2.074,3.527-4.215,5.241-6.358c0.775-0.973,1.399-2.064,2.185-3.025
		c0.906-1.104,2.177-1.106,2.862,0.123c0.468,0.84,0.527,1.928,0.671,2.918c0.068,0.479-0.091,0.986-0.146,1.48
		C93.942,52.336,94.062,52.411,94.182,52.489z M80.729,50.431c-0.125-0.171-0.397-0.961-0.835-1.063
		c-0.538-0.129-1.552,0.136-2.025,0.514c-0.549,0.434-1.751,1.484-2.154,2.085c-1.448,2.154-2.702,3.81-2.49,6.396
		c0.078,0.947,0.299,1.634,1.166,2.063c0.904,0.447,1.708-0.031,2.062-0.788c0.363-0.771,0.474-1.706,0.514-2.577
		c0.044-0.923,0.135-1.718,1.105-2.117C79.601,54.314,80.761,52.546,80.729,50.431z"/>
	<circle fill-rule="evenodd" clip-rule="evenodd" fill="#6482A5" cx="149.867" cy="32.174" r="6.738"/>
	<path fill-rule="evenodd" clip-rule="evenodd" fill="#044280" d="M141.61,30.5c0.7-1.033,1.215-1.807,1.746-2.569
		c2.463-3.537,5.927-5.345,10.135-5.888c0.427-0.055,0.828-0.28,1.24-0.427c-0.214-0.348-0.385-0.736-0.652-1.037
		c-3.253-3.637-7.316-6.083-11.785-7.899c-5.762-2.343-11.776-2.677-17.881-2.104c-2.05,0.192-3.914-0.046-5.885-0.857
		c-1.682-0.693-3.707-0.551-5.582-0.775c-0.492-0.06-0.986-0.106-1.479-0.159c-0.059-0.124-0.117-0.246-0.177-0.37
		c0.52-0.43,0.981-1.095,1.572-1.248c2.029-0.524,4.09-1.064,6.169-1.245c5.392-0.469,10.741-0.034,16.015,1.23
		c9.087,2.177,16.674,6.694,22.387,14.202c0.501,0.658,1.245,1.234,2,1.575c5.869,2.652,9.457,8.085,8.43,14.88
		c-0.586,3.884-2.677,6.988-5.945,9.153c-4.836,3.204-9.836,3.074-14.708,0.131c-2.38-1.437-4.236-3.498-5.263-6.175
		c-0.391-1.02-0.783-1.09-1.514-0.277c-0.829,0.917-1.603,1.907-2.537,2.707c-2.749,2.354-5.998,3.187-9.501,2.443
		c-6.232-1.319-9.892-7.195-8.928-13.295c0.819-5.185,5.72-9.244,10.689-9.408c3.681-0.123,6.662,1.134,9.054,3.813
		C140.08,27.879,140.687,29.09,141.61,30.5z M165.926,35.885c0-0.042-0.001-0.085,0-0.129c0.069-2.479-0.466-4.792-1.997-6.784
		c-1.454-1.89-2.992-3.702-5.689-3.734c-0.196-0.002-0.41-0.13-0.587-0.246c-2.992-1.926-6.061-1.075-8.821,0.242
		c-2.827,1.348-4.452,3.969-5.527,6.97c-2.237,6.25,2.683,14.193,9.763,14.907C159.994,47.809,166.176,42.332,165.926,35.885z
		 M130.845,24.844c-6.046-0.021-9.739,4.562-9.899,10.041c-0.136,4.625,5.102,9.482,10.051,9.385
		c5.297-0.104,9.585-4.284,9.468-9.994C140.358,29.076,136.384,24.938,130.845,24.844z"/>
	<path fill-rule="evenodd" clip-rule="evenodd" fill="#C50109" d="M70.642,27.776c0,1.594,0.013,3.187-0.004,4.779
		c-0.017,1.857-0.585,2.567-2.446,2.586c-3.609,0.038-7.221-0.1-10.832-0.11c-2.575-0.005-5.151,0.103-7.728,0.121
		c-2.58,0.018-5.16,0.029-7.738-0.045c-1.068-0.03-1.665-0.857-1.677-1.823c-0.046-3.744-0.018-7.49,0.077-11.232
		c0.009-0.374,0.661-0.731,1.013-1.095c0.319,0.383,0.873,0.742,0.915,1.154c0.158,1.538,0.045,3.103,0.228,4.635
		c0.255,2.154,1.369,3.821,3.192,5.054c1.743,1.181,3.498,1.166,4.994-0.166c1.18-1.052,2.295-2.348,2.969-3.76
		c1.422-2.977-0.021-4.919-2.042-6.504c-1.977-1.55-4.289-2.554-6.933-2.36c-0.215,0.016-0.43,0.008-0.646,0.01
		c-2.543,0.031-2.787-0.296-2.72-2.81c0.077-2.881,0.006-5.765,0.003-8.648c0-0.342-0.081-0.753,0.076-1.008
		c0.195-0.319,0.603-0.706,0.913-0.7c0.3,0.005,0.781,0.425,0.851,0.739c0.147,0.659,0.042,1.37,0.104,2.054
		c0.262,2.877,1.123,5.448,3.611,7.234c1.425,1.024,2.967,0.908,4.313-0.295c2.25-2.008,3.043-4.616,3.222-7.489
		c0.067-1.073-0.057-2.166,0.094-3.224c0.066-0.466,0.598-0.866,0.918-1.295c0.324,0.434,0.854,0.833,0.934,1.308
		c0.361,2.196,0.571,4.418,0.887,6.622c0.338,2.354,1.916,3.795,3.879,4.824c0.485,0.253,1.425,0.252,1.823-0.058
		c1.188-0.928,2.614-1.883,3.203-3.169c0.801-1.744,0.955-3.796,1.297-5.731c0.129-0.734,0-1.594,1.047-1.578
		c0.964,0.015,1.135,0.782,1.117,1.572c-0.076,3.351-0.168,6.701-0.243,10.05c-0.027,1.304-0.769,1.75-1.943,1.619
		c-3.127-0.35-5.719,1.003-8.117,2.708c-1.64,1.166-2.751,2.942-2.376,4.988c0.495,2.706,1.714,5.101,4.771,5.801
		c2.291,0.523,4.874-0.997,5.852-3.212c0.914-2.066,1.2-4.192,1.125-6.421c-0.024-0.74-0.318-1.903,0.915-1.888
		c1.183,0.015,1.085,1.128,1.094,1.982c0.02,1.593,0.006,3.187,0.006,4.781C70.639,27.776,70.64,27.776,70.642,27.776z"/>
	<path fill-rule="evenodd" clip-rule="evenodd" fill="#C50109" d="M147.629,54.388c-0.347-0.108-2.218,0.014-2.438,0.035
		c-3.639,0.36-7.069-0.535-10.585-1.144c-1.014-0.177-2.085-0.404-3.028-0.843c-0.447-0.208-1.196-0.638-1.161-1.093
		c0.201-0.354,0.78-0.345,1.261-0.354c0.893-0.016,1.7,0.111,2.55,0.218c4.878,0.621,9.695,0.3,14.481-0.8
		c0.996-0.229,2.049-0.355,3.069-0.32c2.129,0.069,2.852,1.671,2.019,3.622c-2.434,5.704-11.307,9.339-17.009,8.339
		c-3.264-0.572-5.533-2.59-7.399-5.154c-0.196-0.271-0.392-1.058-0.11-1.441c0.525-0.2,1.014,0.063,1.329,0.253
		c3.183,1.941,6.669,2.259,10.212,1.733c1.607-0.239,3.378-0.953,4.891-1.636C146.754,55.332,147.398,54.678,147.629,54.388z"/>
	<path fill-rule="evenodd" clip-rule="evenodd" fill="#C50109" d="M21.241,21.878c0-1.55-0.01-3.101,0.003-4.65
		c0.023-2.799,1.828-4.917,4.612-5.054c2.701-0.133,5.417,0.015,8.125,0.067c2.483,0.049,4.259,4.093,3.827,5.912
		c-0.092,0.39-0.52,0.819-0.902,1.001c-2.477,1.179-4.956,2.36-7.489,3.409c-1.92,0.794-3.777,1.713-5.23,3.166
		c-0.543,0.545-0.807,1.759-0.635,2.543c0.284,1.295,1.387,2.084,2.766,2.109c2.841,0.051,5.685-0.023,8.526,0.021
		c0.833,0.013,2.222-0.357,2.246,0.822c0.025,1.242-1.367,0.839-2.188,0.85c-2.798,0.04-5.599-0.019-8.397-0.005
		c-2.703,0.014-5.216-2.395-5.226-5.153c-0.005-1.68-0.001-3.359-0.001-5.039C21.264,21.878,21.253,21.878,21.241,21.878z
		 M29.435,13.879c0-0.007,0-0.015,0-0.022c-1.03,0-2.061,0.011-3.091-0.003c-1.601-0.02-2.705,0.924-3.158,2.235
		c-0.533,1.546-0.515,3.301,0.597,4.669c0.949,1.167,2.392,0.946,3.603,0.516c2.194-0.782,4.341-1.709,6.462-2.677
		c1.06-0.483,1.806-1.379,1.725-2.628c-0.062-0.959-1.432-2.002-2.664-2.075C31.755,13.825,30.593,13.879,29.435,13.879z"/>
	<path fill-rule="evenodd" clip-rule="evenodd" fill="#044280" d="M145.191,69.156c-1.12,5.02-7.489,7.19-11.289,4.185
		c-2.406-1.902-3.491-4.465-3.76-7.361c-0.265-2.872-0.865-5.566-2.602-7.924c-0.075-0.102-0.127-0.226-0.165-0.349
		c-0.021-0.076,0.006-0.165,0.018-0.395c0.284,0.095,0.648,0.101,0.757,0.272c0.79,1.226,1.691,2.416,2.243,3.749
		c1.059,2.563,1.753,5.283,2.887,7.811c1.164,2.592,4.14,3.37,6.699,2.086c1.263-0.633,2.564-1.188,3.862-1.747
		C144.208,69.326,144.626,69.289,145.191,69.156z"/>
	<path fill-rule="evenodd" clip-rule="evenodd" fill="#044280" d="M145.926,70.688c1.012-1.473,1.964-2.988,3.046-4.408
		c3.462-4.547,6.788-9.177,9.255-14.362c0.093-0.192,0.169-0.439,0.329-0.546c0.399-0.265,0.844-0.464,1.271-0.688
		c0.072,0.504,0.354,1.098,0.186,1.506c-2.771,6.747-6.516,12.858-11.896,17.866c-0.495,0.461-1.201,0.696-1.811,1.036
		C146.179,70.956,146.053,70.822,145.926,70.688z"/>
	<path fill-rule="evenodd" clip-rule="evenodd" fill="#6482A5" d="M46.607,64.234c-1.667-0.023-2.837-1.716-2.094-3.259
		c0.431-0.891,1.115-1.784,1.921-2.333c0.6-0.406,1.686-0.546,2.359-0.289c0.922,0.352,1.427,1.291,1.314,2.422
		C49.918,62.678,48.344,64.258,46.607,64.234z"/>
	<circle fill-rule="evenodd" clip-rule="evenodd" fill="#6482A5" cx="128.376" cy="37.587" r="5.414"/>
</g>
</svg>
