<svg xmlns="http://www.w3.org/2000/svg" viewBox="0 0 254.95 65.35"><defs><style>.a{fill:#fff;}</style></defs><title>资源 18</title><circle cx="32.67" cy="32.67" r="32.67"/><path d="M104,35.76v2.3h20.61a20.46,20.46,0,0,0,4.28-.36v3.9a31.76,31.76,0,0,0-4.52-.39H106.83Q114,51,130.1,54.84a9.28,9.28,0,0,0-3.9,3.9Q110.63,52.28,104,43.16V56.47a29.6,29.6,0,0,0,.39,5.21h-4.25a27.22,27.22,0,0,0,.39-5.21V43.16Q90.28,54.85,79.4,59.72a11.89,11.89,0,0,0-3.27-3.79q11.44-2.78,21.29-14.78H80.17a20.7,20.7,0,0,0-4.42.39v-3.9a19.48,19.48,0,0,0,4.36.36h20.46V35.28a27.45,27.45,0,0,0-.43-5.11l4.87.6q.63.06.63.25t-.63.62Q103.93,32.11,104,35.76Zm-26.65-18,1.72-3.09a101.74,101.74,0,0,1,9.12,5.21L86.33,23A68.76,68.76,0,0,0,77.34,17.76Zm3.21,18.19-2.84-4a64.19,64.19,0,0,0,16.88-9.74l.55,4.15q-10,6.35-14.54,9.62ZM83,8.51l2.09-2.84A77.81,77.81,0,0,1,93.9,12l-2.15,2.79a41.23,41.23,0,0,0-8.67-6.27ZM95.11,21.24l-.55-4.15a18.67,18.67,0,0,0,2.18.12A19.42,19.42,0,0,0,99.83,17l5.91-.88V9.27a26.55,26.55,0,0,0-.39-5.46l4.87.6q.63.06.63.24t-.57.57q-1.12.55-1.06,4.09v6.22l11.61-1.7a20.38,20.38,0,0,0,5.46-1.36l.52,4.09q-1-.09-1.78-.09a15,15,0,0,0-3.06.3l-12.73,1.85V25.8q-.12,2.27,1,2.67.88.55,5.85.49,5.4.12,6.63-1.25,1.42-1,1.95-6.22a6.27,6.27,0,0,0,3.9,2.24q-1.79,6-3.9,7-1.85,1.58-8.54,1.42-7.21.09-8.7-.91-1.82-.82-1.61-4.79V19.19l-5.21.88Q97.41,20.64,95.11,21.24Z"/><path d="M140.42,56.07q1.64-.82,1.88-1.48a6.82,6.82,0,0,0,.36-3.12V14.85a30.69,30.69,0,0,0-.36-5.4l4.58.49q.82.12.88.38c0,.18-.15.44-.55.8q-1.06,1-1.06,3.9V26.4h10.61a25.74,25.74,0,0,0,4.87-.36v3.9a28.75,28.75,0,0,0-4.87-.39H146.15V53.7q.6-.3,1.85-.88a62.35,62.35,0,0,0,12.55-7,35.66,35.66,0,0,0-.43,5.21q-12.06,6-13.55,6.82a35.41,35.41,0,0,0-4,2.67Q141.12,57.37,140.42,56.07Zm30.06-44.49V27.89q10.72-5.15,14.4-9.43l3.73,3.9q.79.79.66,1.17t-1.18.32a9.26,9.26,0,0,0-5.34,1.67,73.11,73.11,0,0,1-12.27,6.16V52.91q-.27,3,3.16,3h.57q2.37.12,4.09.12a30.33,30.33,0,0,0,4.75-.3q3.13-.69,4.06-4.42a35.17,35.17,0,0,0,.3-5.39,12.26,12.26,0,0,0,4.87,2.61q-1,3.55-1.82,6.09a8.29,8.29,0,0,1-6.16,4.87,51.78,51.78,0,0,1-6.3.39,59.1,59.1,0,0,1-7.09-.46q-4-.54-4-6.23V11.58a33.35,33.35,0,0,0-.36-5.37l4.58.52q.88.06,1,.36t-.63.88Q170.48,8.88,170.48,11.58Z"/><path d="M197.91,57.86q10.18-1.95,14-6.13,3.19-3.39,3.19-9.3a25.79,25.79,0,0,0-.21-3.13l4,.43q1.12.06,1.12.39t-.76,1a4,4,0,0,0-.66,2.37q.12,12.12-17.54,18.06A17.61,17.61,0,0,0,197.91,57.86Zm5.85-44.19h30.12q-.19-2.84-.19-5.7a30.84,30.84,0,0,0-.33-4.55l5,.7c.55,0,.84.2.88.49s-.25.61-.76,1.12q-1.06.49-1,7.94h8.88a31.61,31.61,0,0,0,4.87-.36V17a29.84,29.84,0,0,0-4.87-.39h-8.77q.55,30.43,10.31,38.79,2,0,2.67-5.94A13.28,13.28,0,0,0,255,51.6q-2.67,8.77-6.46,9.91-13.79-8.94-14.61-44.89h-30.2a43.26,43.26,0,0,0-5.27.39V13.3a51,51,0,0,0,5.33.36Zm-.91,16.94V26.88a32,32,0,0,0,5,.36h18.25a28.46,28.46,0,0,0,4.75-.39v3.73a29.36,29.36,0,0,0-4.75-.36H207.88a34.67,34.67,0,0,0-5.06.39Zm27.55,2.92a42.86,42.86,0,0,0-.36,5.27v6.33a44,44,0,0,0,.36,5.57h-4.21a43,43,0,0,0,.36-5.57V36.89H208.46v9a44.33,44.33,0,0,0,.36,5.34h-4.22a39.41,39.41,0,0,0,.36-5.34v-7a49.37,49.37,0,0,0-.36-5.4,46,46,0,0,0,5.57.36h14.91a36.41,36.41,0,0,0,5.28-.35Zm-25-9.51V20.31a35.38,35.38,0,0,0,5,.39h13.07a30.39,30.39,0,0,0,4.94-.39V24a33.64,33.64,0,0,0-4.94-.36H210.4A41.34,41.34,0,0,0,205.37,24Zm13.39,28.31L221.07,49q6.39,3.9,13,8.34l-2.3,3.43a103.13,103.13,0,0,0-13-8.41ZM240,6.73l3.06-2.61a49.34,49.34,0,0,1,5.34,6l-3.35,2.51A28.74,28.74,0,0,0,240,6.73Z"/><path class="a" d="M22.16,36.24c3.68-.23,8.57,2.61,10,5.82a2.74,2.74,0,0,1,.06,1.56c-.72,3.43-1.45,6.85-2.27,10.26a2.85,2.85,0,0,1-1.14,1.75,8.19,8.19,0,0,1-6.15.81c-1.74-.51-2.3-2-1-3.15,2.07-1.94,1.82-4.26,1.54-6.63s-.71-4.6-1-6.91A31.92,31.92,0,0,1,22.16,36.24Z"/><path class="a" d="M49,33.85c-.86,1.44-1.42,3.18-3.6,3.67.68,3.75,1.42,7.65,2.09,11.57a30.66,30.66,0,0,1,.45,4.16,5,5,0,0,1-5.16,5.34,15.15,15.15,0,0,1-4.54-.76c-1.74-.59-2.12-1.93-.88-3.26a3,3,0,0,0,.62-3.52c-1.31-3.3-2.3-6.79-4.11-9.8-3.07-5.1-8.21-6.51-13.75-5.69a59.9,59.9,0,0,0-10.52,3.1A5.46,5.46,0,0,1,4,38c-.82-.63-1.11-1.3-.4-2.23.6-.78,1.11-1.62,1.68-2.42.77-1.09,1.6-2.1,1.38-3.63a2.49,2.49,0,0,1,.64-1.84c1.38-1.41,2.9-2.69,4.38-4a1.54,1.54,0,0,1,.85-.35c6.27-.43,11.25-3.42,15.65-7.69,3.27-3.18,6.93-5.81,11.57-6.54C46.46,8.2,52.94,11.66,53.9,19.65a29,29,0,0,1-.65,8.58c-.7,4.09-1.15,8.18-.27,12.32a5.26,5.26,0,0,1-1.46,4.72,1.41,1.41,0,0,1-2.61-.57c-.62-2-1.24-4-1.76-6a2.18,2.18,0,0,1,.41-1.3c.59-1.1,1.23-2.17,1.85-3.25Zm-38.7-4.08a.62.62,0,1,0,.62.62A.62.62,0,0,0,10.26,29.76Z"/></svg>